<svg id="Layer_8" data-name="Layer 8" xmlns="http://www.w3.org/2000/svg" viewBox="0 0 335.27 335.27"><defs><style>.cls-1{fill:#c6c6c6;}</style></defs><title>icon 3</title><path class="cls-1" d="M115.18,308.79l7.34-14.66,21.9-21.9c-16-76.31,51.18-143.89,127.81-127.8L303.71,113a148.52,148.52,0,0,0-15.61-5.16l-9.67-20a9.82,9.82,0,0,0-8.79-5.43H230.36a9.82,9.82,0,0,0-8.79,5.43l-9.68,20a146.58,146.58,0,0,0-38.58,16.48l-16.15-8.07A9.79,9.79,0,0,0,145.82,118L118,145.82a9.83,9.83,0,0,0-1.84,11.34l8.07,16.15a146.58,146.58,0,0,0-16.48,38.58l-20,9.68a9.82,9.82,0,0,0-5.43,8.79v39.29a9.82,9.82,0,0,0,5.43,8.78l20,9.68A147,147,0,0,0,115.18,308.79Z" transform="translate(-82.36 -82.36)"/><path class="cls-1" d="M162,254.63l92.6-92.6C202,159.31,159.28,201.6,162,254.63Z" transform="translate(-82.36 -82.36)"/><path class="cls-1" d="M338,245.37,245.38,338C298,340.7,340.72,298.43,338,245.37Z" transform="translate(-82.36 -82.36)"/><path class="cls-1" d="M410.92,221l-17.69-5.68a144.15,144.15,0,0,0-6.13-19.12l-31.53,31.53c16,76.47-51.3,143.84-127.79,127.81l-21.71,21.71-14.86,7.45a144.25,144.25,0,0,0,24.13,8.45l5.7,17.73a9.81,9.81,0,0,0,9.32,6.72h39.28a9.81,9.81,0,0,0,9.32-6.72l5.7-17.73a146,146,0,0,0,38.88-15.72l20.59,6.86A9.81,9.81,0,0,0,354.18,382L382,354.18a9.81,9.81,0,0,0,2.37-10.05l-6.86-20.59a146,146,0,0,0,15.72-38.88l17.73-5.7a9.81,9.81,0,0,0,6.72-9.31V230.36A9.81,9.81,0,0,0,410.92,221Z" transform="translate(-82.36 -82.36)"/><path class="cls-1" d="M111.64,359.77,96.22,390.6a9.82,9.82,0,0,0,13.18,13.17l30.8-15.42a29,29,0,0,0-28.56-28.58Z" transform="translate(-82.36 -82.36)"/><rect class="cls-1" x="309.8" y="138.24" width="25.38" height="78.57" transform="translate(-113.44 197.66) rotate(-45)"/><path class="cls-1" d="M406.11,148.94a39.23,39.23,0,0,0,0-55.55c-14.69-14.7-40.86-14.7-55.55,0l-33,33.48,55.56,55.56Z" transform="translate(-82.36 -82.36)"/><path class="cls-1" d="M194.42,361.15l133-133L271.84,172.6,138.66,305.77l-17.79,35.55a48,48,0,0,1,38,37.7l35.49-17.78Z" transform="translate(-82.36 -82.36)"/></svg>