<svg id="Layer_8" data-name="Layer 8" xmlns="http://www.w3.org/2000/svg" viewBox="0 0 315.02 321.31"><defs><style>.cls-1{fill:#c5c5c5;}</style></defs><title>icon 2 white</title><path class="cls-1" d="M346.62,252.8l-.26-.35a5.52,5.52,0,0,0-9.88,2.53l-3.06,21.46a4.59,4.59,0,0,1-.29.81A98.92,98.92,0,0,0,346.62,252.8Z" transform="translate(-92.49 -89.34)"/><path class="cls-1" d="M328,281.17a4.9,4.9,0,0,1-.77-.05l-32.77-4.68a5.52,5.52,0,0,1-4.68-6.24h0l3.06-21.46a5.51,5.51,0,0,0-8.76-5.19l-17.35,13a5.52,5.52,0,0,1-7.72-1.1h0L239.1,229a5.53,5.53,0,0,1,1.11-7.73l17.33-13a5.51,5.51,0,0,0-2.53-9.87l-21.46-3.07a5.52,5.52,0,0,1-4.68-6.24h0l4.68-32.76a5.52,5.52,0,0,1,6.24-4.69h0l21.46,3.07a5.48,5.48,0,0,0,5.51-2.65,5.42,5.42,0,0,0-.33-6.13l-13-17.33a5.52,5.52,0,0,1,1.1-7.72h0l3.13-2.35a102.77,102.77,0,0,0-15.19.41,99.29,99.29,0,0,0-42.26,182.28,31.67,31.67,0,0,1,15,26.5V350a16.54,16.54,0,0,0,16.54,16.55h44.13A16.55,16.55,0,0,0,292.41,350V328.14A32.5,32.5,0,0,1,307.69,301a99.68,99.68,0,0,0,23-20.63A5.48,5.48,0,0,1,328,281.17ZM259.32,350h-11V333.43h11Zm-11-27.58a35.21,35.21,0,0,0-22.61-32.88,77.23,77.23,0,0,1-13-137.28l5.85,9.34a66.18,66.18,0,0,0,11.16,117.67,46.17,46.17,0,0,1,29.67,43.15Z" transform="translate(-92.49 -89.34)"/><path class="cls-1" d="M242.77,410.66h22.06a11,11,0,0,0,11-11v-5.51H231.73v5.51A11,11,0,0,0,242.77,410.66Z" transform="translate(-92.49 -89.34)"/><path class="cls-1" d="M125.47,283.78a33.11,33.11,0,0,1,29-32.81,106.13,106.13,0,0,1-4.37-18.71l-1,4.59a11,11,0,0,1-13.07,8.53,10.93,10.93,0,0,1-4-1.71l-11.48-7.88-10,10,7.9,11.48a11,11,0,0,1-6.81,17.06l-13.75,2.9v13.1l13.75,2.9a11,11,0,0,1,6.81,17.06l-7.9,11.43,10,10,11.47-7.9a11,11,0,0,1,17.05,6.82L152,344.46h13.12L168,330.71a11,11,0,0,1,17-6.81l11.46,7.87,11.83-11.83a26.94,26.94,0,0,0-11.11-14.09,104.36,104.36,0,0,1-9.43-6.89,33,33,0,0,1-62.35-15.18Z" transform="translate(-92.49 -89.34)"/><rect class="cls-1" x="139.24" y="282.7" width="44.13" height="11.03"/><path class="cls-1" d="M391.53,184.44A16.55,16.55,0,0,1,384,154.82l12.92-9.7-13.23-17.65-12.93,9.69a16.55,16.55,0,0,1-26.32-15.56l2.29-16-21.84-3.12-2.29,16a16.54,16.54,0,0,1-29.62,7.58l-9.7-12.94-17.65,13.24,9.69,12.92a16.54,16.54,0,0,1-15.58,26.31l-16-2.28-3.13,21.84,16,2.29a16.54,16.54,0,0,1,7.58,29.62l-12.92,9.7,13.24,17.65,12.93-9.69a16.54,16.54,0,0,1,26.31,15.58l-2.28,16,21.88,3.13,2.29-16a16.54,16.54,0,0,1,29.62-7.58l9.7,12.92,17.65-13.24-9.73-12.95a16.55,16.55,0,0,1,15.57-26.31l16,2.28,3.12-21.84ZM324.05,219A33.1,33.1,0,1,1,357.15,186,33.08,33.08,0,0,1,324.05,219Z" transform="translate(-92.49 -89.34)"/><rect class="cls-1" x="266.12" y="205.47" width="38.61" height="11.03"/><rect class="cls-1" x="364.12" y="320.16" width="11.03" height="43.08" transform="translate(-221.99 317.62) rotate(-50.2)"/><rect class="cls-1" x="233.02" y="249.6" width="11.03" height="38.61"/><rect class="cls-1" x="93.15" y="178.97" width="45.49" height="11.03" transform="translate(-133.77 -55.73) rotate(-14.04)"/><rect class="cls-1" x="118.65" y="113.88" width="11.03" height="47.45" transform="matrix(0.58, -0.81, 0.81, 0.58, -152.47, 69.32)"/><rect class="cls-1" x="154.39" y="90" width="11.03" height="45.55" transform="translate(-115.44 -46.23) rotate(-14.34)"/></svg>