<svg id="Layer_8" data-name="Layer 8" xmlns="http://www.w3.org/2000/svg" viewBox="0 0 297.5 297.5"><defs><style>.cls-1,.cls-2{fill:#c6c6c6;}.cls-1{opacity:0.19;}.cls-3{fill:#fff;}</style></defs><title>icon 1 white</title><path class="cls-1" d="M386.1,174.65a5.14,5.14,0,0,1-2.3-.54l-61.55-30.77a5.13,5.13,0,0,1,4.59-9.18l61.56,30.78a5.13,5.13,0,0,1-2.3,9.71Z" transform="translate(-109.12 -97.71)"/><path class="cls-1" d="M350.2,241.33a5.11,5.11,0,0,1-4.05-2l-35.9-46.16a5.13,5.13,0,1,1,8.09-6.3l35.9,46.16a5.12,5.12,0,0,1-4,8.28Z" transform="translate(-109.12 -97.71)"/><path class="cls-1" d="M274.33,329a5.13,5.13,0,0,1-3.09-9.23l28.65-21.49a5.13,5.13,0,1,1,6.16,8.2L277.4,328A5.13,5.13,0,0,1,274.33,329Z" transform="translate(-109.12 -97.71)"/><path class="cls-1" d="M175.8,349.05H139.9a5.13,5.13,0,0,1,0-10.26h35.9a5.13,5.13,0,0,1,0,10.26Z" transform="translate(-109.12 -97.71)"/><path class="cls-1" d="M245.69,247.31a5.18,5.18,0,0,1-3-1l-44.25-31.62a5.13,5.13,0,0,1,6-8.35L248.68,238a5.13,5.13,0,0,1-3,9.31Z" transform="translate(-109.12 -97.71)"/><path class="cls-1" d="M196.68,184.55a5.13,5.13,0,0,1-3.37-9L234,140a5.13,5.13,0,0,1,6.75,7.73l-40.67,35.54A5.14,5.14,0,0,1,196.68,184.55Z" transform="translate(-109.12 -97.71)"/><path class="cls-1" d="M160.41,169.52a5.12,5.12,0,0,1-5.12-5.13v-35.9a5.13,5.13,0,1,1,10.25,0v35.9A5.12,5.12,0,0,1,160.41,169.52Z" transform="translate(-109.12 -97.71)"/><path class="cls-1" d="M322.63,375.54a5.13,5.13,0,0,1-2.24-.52l-54.51-26.49a5.13,5.13,0,1,1,4.49-9.23l54.51,26.49a5.13,5.13,0,0,1-2.25,9.75Z" transform="translate(-109.12 -97.71)"/><path class="cls-2" d="M211.71,215.68a51.3,51.3,0,1,0-76.94,44.38V246.54a10.56,10.56,0,0,1,10.76-10.34h29.76a10.56,10.56,0,0,1,10.77,10.34v13.51A51.2,51.2,0,0,0,211.71,215.68Z" transform="translate(-109.12 -97.71)"/><circle class="cls-2" cx="282.11" cy="76.94" r="15.39"/><circle class="cls-2" cx="15.39" cy="246.21" r="15.39"/><circle class="cls-2" cx="225.69" cy="282.11" r="15.39"/><circle class="cls-2" cx="148.75" cy="153.88" r="15.39"/><circle class="cls-3" cx="51.29" cy="102.59" r="15.39"/><path class="cls-3" d="M175.29,236.2H145.53a10.56,10.56,0,0,0-10.76,10.34v13.52a51,51,0,0,0,51.29,0V246.54A10.56,10.56,0,0,0,175.29,236.2Z" transform="translate(-109.12 -97.71)"/><path class="cls-2" d="M334.81,149a51.3,51.3,0,1,0-76.94,44.38V179.86a10.56,10.56,0,0,1,10.77-10.34H298.4a10.56,10.56,0,0,1,10.76,10.34v13.51A51.2,51.2,0,0,0,334.81,149Z" transform="translate(-109.12 -97.71)"/><circle class="cls-3" cx="174.4" cy="35.9" r="15.39"/><path class="cls-3" d="M298.4,169.52H268.64a10.56,10.56,0,0,0-10.77,10.34v13.52a51,51,0,0,0,51.29,0V179.86A10.56,10.56,0,0,0,298.4,169.52Z" transform="translate(-109.12 -97.71)"/><path class="cls-2" d="M401.49,282.37a51.3,51.3,0,1,0-76.94,44.37V313.22a10.56,10.56,0,0,1,10.77-10.34h29.76a10.56,10.56,0,0,1,10.76,10.34v13.51A51.17,51.17,0,0,0,401.49,282.37Z" transform="translate(-109.12 -97.71)"/><circle class="cls-3" cx="241.08" cy="169.27" r="15.39"/><path class="cls-3" d="M365.08,302.88H335.32a10.56,10.56,0,0,0-10.77,10.34v13.52a51,51,0,0,0,51.29,0V313.22A10.56,10.56,0,0,0,365.08,302.88Z" transform="translate(-109.12 -97.71)"/><path class="cls-2" d="M278.39,343.92a51.3,51.3,0,1,0-76.94,44.37V374.77a10.56,10.56,0,0,1,10.77-10.34H242a10.56,10.56,0,0,1,10.76,10.34v13.51A51.19,51.19,0,0,0,278.39,343.92Z" transform="translate(-109.12 -97.71)"/><circle class="cls-3" cx="117.97" cy="230.82" r="15.39"/><path class="cls-3" d="M242,364.43H212.22a10.56,10.56,0,0,0-10.77,10.34v13.52a51,51,0,0,0,51.29,0V374.77A10.56,10.56,0,0,0,242,364.43Z" transform="translate(-109.12 -97.71)"/><circle class="cls-2" cx="51.29" cy="15.39" r="15.39"/></svg>